<?xml version="1.0" encoding="UTF-8"?>
<svg id="Layer_2" data-name="Layer 2" xmlns="http://www.w3.org/2000/svg" viewBox="0 0 116.14 33.84">
  <defs>
    <style>
      .cls-1 {
        fill: #fff;
        stroke-width: 0px;
      }
    </style>
  </defs>
  <g id="Layer_1-2" data-name="Layer 1">
    <g>
      <path class="cls-1" d="m5.89,19.11c0,3.08,2.07,4.8,4.52,4.8,2.3,0,3.59-1.44,4.02-2.89l5.23,1.6c-.86,3.39-4.06,6.75-9.24,6.75-5.77,0-10.41-4.25-10.41-10.26s4.52-10.3,10.22-10.3c5.34,0,8.46,3.28,9.32,6.75l-5.3,1.6c-.43-1.48-1.6-2.89-3.9-2.89-2.46,0-4.45,1.72-4.45,4.84Z"/>
      <path class="cls-1" d="m45.63,22.39c.08,1.33,1.01,2.61,3.04,2.61,1.52,0,2.26-.82,2.26-1.68,0-.7-.47-1.29-1.91-1.6l-2.22-.51c-4.13-.9-5.77-3.24-5.77-5.97,0-3.55,3.12-6.43,7.45-6.43,5.62,0,7.57,3.51,7.76,5.77l-4.91.9c-.16-1.29-.98-2.38-2.77-2.38-1.13,0-2.11.66-2.11,1.68,0,.82.66,1.29,1.52,1.44l2.57.51c4.02.82,5.97,3.24,5.97,6.08,0,3.31-2.54,6.55-7.72,6.55-6.08,0-8.03-3.94-8.19-6.08l5.03-.9Z"/>
      <path class="cls-1" d="m58.03,28.78V9.4h5.65v2.22c.98-1.72,3.47-2.81,5.58-2.81,2.77,0,4.76,1.13,5.73,3.04,1.52-2.18,3.39-3.04,6.01-3.04,3.67,0,7.18,2.14,7.18,7.41v12.56h-5.73v-11.23c0-1.83-.98-3.28-3.08-3.28s-3.24,1.6-3.24,3.32v11.19h-5.85v-11.23c0-1.83-.98-3.28-3.12-3.28s-3.2,1.6-3.2,3.35v11.15h-5.93Z"/>
      <path class="cls-1" d="m92.2,0c1.95,0,3.51,1.56,3.51,3.47s-1.56,3.47-3.51,3.47-3.43-1.56-3.43-3.47,1.56-3.47,3.43-3.47Zm-2.93,28.78V9.4h5.93v19.38h-5.93Z"/>
      <path class="cls-1" d="m108.42,17.55l7.72,11.23h-7.25l-4.56-6.83-1.91,2.07v4.76h-5.93V.55h5.93v15.37l5.89-6.51h7.68l-7.57,8.15Z"/>
    </g>
    <g>
      <path class="cls-1" d="m37.41,8.24c.64-3.75.2-6.01-1.31-6.71-1.51-.7-3.51.43-5.96,3.35-.88,1.05-1.77,2.3-2.65,3.67-4.41,1.11-7.57,4.9-7.57,9.92,0,1.66.35,3.19.98,4.53-.41,1.38-.72,2.7-.93,3.91-.64,3.75-.2,6.01,1.31,6.71.29.13.6.2.92.2,1.37,0,3.06-1.19,5.04-3.55,2.16-2.59,4.4-6.3,6.32-10.45,1.92-4.15,3.28-8.27,3.85-11.59Zm-6.02-2.31c1.96-2.35,3.22-2.96,3.8-2.96.09,0,.17.02.23.04.43.2.99,1.46.39,4.96-.09.51-.2,1.05-.33,1.59-1.22-.69-2.61-1.13-4.11-1.28-.38-.04-.77-.06-1.16-.06-.19,0-.38.01-.57.02.58-.85,1.16-1.63,1.74-2.32Zm-9.43,26.23c-.43-.2-.99-1.46-.39-4.96.12-.72.29-1.49.49-2.28.35.45.73.87,1.15,1.25,1.01.92,2.23,1.62,3.57,2.06-.27.35-.53.69-.8,1.01-2.27,2.72-3.6,3.12-4.03,2.92Zm8-8.85c-2.13-.12-4.12-1.71-4.12-4.82,0-.05,0-.09,0-.14.03-1.85.76-3.13,1.81-3.87.74-.54,1.64-.79,2.55-.79,1.35,0,2.63.56,3.45,1.69-.47,1.24-1,2.5-1.59,3.78-.67,1.45-1.38,2.85-2.12,4.16Z"/>
      <path class="cls-1" d="m38.09,11.69c-.71,2.71-1.82,5.74-3.23,8.79-.96,2.08-2,4.04-3.07,5.81-.53.88-1.07,1.71-1.62,2.48h.05c5.81,0,10.3-4.29,10.3-10.3,0-2.69-.9-5.02-2.42-6.79Z"/>
    </g>
  </g>
</svg>